<svg xmlns="http://www.w3.org/2000/svg" width="500" height="500" image-rendering="optimizeQuality" shape-rendering="geometricPrecision" text-rendering="optimizeLegibility" viewBox="0 0 375 375"><defs><clipPath id="e"><path d="M0 0h375v375H0Zm0 0"/></clipPath><clipPath id="d"><path d="M0 0h375v375H0z"/></clipPath><clipPath id="g"><path d="M78.688 130.941h67.609v67.61h-67.61Zm0 0"/></clipPath><clipPath id="i"><path d="M.688.941h67.609v67.61H.687Zm0 0"/></clipPath><clipPath id="h"><path d="M0 0h69v69H0z"/></clipPath><clipPath id="j"><path d="M78.688 130.941h67.609v2.016h-67.61Zm65.617 2.016h1.992v63.602h-1.992Zm-65.617 0h2.015v63.602h-2.016Zm0 63.602h67.609v1.992h-67.61Zm0 0"/></clipPath><clipPath id="l"><path d="M.688.941h67.609v2.016H.687Zm65.617 2.016h1.992v63.602h-1.992Zm-65.617 0h2.015v63.602H.688Zm0 63.602h67.609v1.992H.687Zm0 0"/></clipPath><clipPath id="k"><path d="M0 0h69v69H0z"/></clipPath><clipPath id="m"><path d="M149.645 130.852h67.609v67.609h-67.61Zm0 0"/></clipPath><clipPath id="o"><path d="M.645.852h67.609V68.46H.644Zm0 0"/></clipPath><clipPath id="n"><path d="M0 0h69v69H0z"/></clipPath><clipPath id="p"><path d="M149.645 130.852h67.609v2.015h-67.61Zm65.617 2.015h1.992v63.637h-1.992Zm-65.617 0h2.015v63.637h-2.015Zm0 63.637h67.609v1.988h-67.61Zm0 0"/></clipPath><clipPath id="r"><path d="M.645.852h67.609v2.015H.644Zm65.617 2.015h1.992v63.637h-1.992Zm-65.617 0H2.66v63.637H.645Zm0 63.637h67.609v1.988H.644Zm0 0"/></clipPath><clipPath id="q"><path d="M0 0h69v69H0z"/></clipPath><clipPath id="s"><path d="M220.633 130.852h67.61v67.609h-67.61Zm0 0"/></clipPath><clipPath id="u"><path d="M.633.852h67.61V68.46H.632Zm0 0"/></clipPath><clipPath id="t"><path d="M0 0h69v69H0z"/></clipPath><clipPath id="v"><path d="M220.602 130.852h67.64v2.03h-67.64Zm65.632 2.03h2.008v63.606h-2.008Zm-65.632 0h2.027v63.606h-2.027Zm0 63.606h67.64v2.004h-67.64Zm0 0"/></clipPath><clipPath id="x"><path d="M.602.852h67.64v2.03H.602Zm65.632 2.03h2.008v63.606h-2.008Zm-65.632 0h2.027v63.606H.602Zm0 63.606h67.64v2.004H.602Zm0 0"/></clipPath><clipPath id="w"><path d="M0 0h69v69H0z"/></clipPath><clipPath id="y"><path d="M11.344 108.688H96V193H11.344Zm0 0"/></clipPath><clipPath id="z"><path d="M280 185h84.594v84.188H280Zm0 0"/></clipPath><clipPath id="A"><path d="M0 0h37v80H0z"/></clipPath><clipPath id="B"><path d="M0 0h37v79H0z"/></clipPath><clipPath id="C"><path d="M0 0h41v79H0z"/></clipPath><clipPath id="D"><path d="M0 0h251v11H0z"/></clipPath><filter id="a" width="100%" height="100%" x="0%" y="0%"><feColorMatrix color-interpolation-filters="sRGB" values="0 0 0 0 1 0 0 0 0 1 0 0 0 0 1 0 0 0 1 0"/></filter><filter id="b" width="100%" height="100%" x="0%" y="0%"><feColorMatrix color-interpolation-filters="sRGB" values="0 0 0 0 1 0 0 0 0 1 0 0 0 0 1 0.2126 0.7152 0.0722 0 0"/></filter><mask id="c"><g filter="url(#a)"><path fill-opacity=".64" d="M-37.5-37.5h450v450h-450z"/></g></mask><mask id="f"><g filter="url(#a)"><g filter="url(#b)" transform="matrix(.1922 0 0 .19261 -6.537 -97.888)"/></g></mask></defs><g clip-path="url(#g)"><g clip-path="url(#h)" transform="translate(78 130)"><g clip-path="url(#i)"><path fill="#fff" d="M.688.941h67.609v67.61H.687Zm0 0"/></g></g></g><g clip-path="url(#j)"><g clip-path="url(#k)" transform="translate(78 130)"><g clip-path="url(#l)"><path fill="#121010" d="M.688.941h67.609v67.61H.687Zm0 0"/></g></g></g><g clip-path="url(#m)"><g clip-path="url(#n)" transform="translate(149 130)"><g clip-path="url(#o)"><path fill="#fff" d="M.645.852h67.609V68.46H.644Zm0 0"/></g></g></g><g clip-path="url(#p)"><g clip-path="url(#q)" transform="translate(149 130)"><g clip-path="url(#r)"><path fill="#121010" d="M.645.852h67.609V68.46H.644Zm0 0"/></g></g></g><g clip-path="url(#s)"><g clip-path="url(#t)" transform="translate(220 130)"><g clip-path="url(#u)"><path fill="#fff" d="M.633.852h67.61V68.46H.632Zm0 0"/></g></g></g><g clip-path="url(#v)"><g clip-path="url(#w)" transform="translate(220 130)"><g clip-path="url(#x)"><path fill="#121010" d="M.602.852h67.64v67.64H.602Zm0 0"/></g></g></g><g clip-path="url(#y)"><path fill="#121010" d="M14.816 192.906h-3.472v-84.14h84.14v3.468H14.816Zm0 0"/></g><g clip-path="url(#z)"><path fill="#121010" d="M364.383 269.238h-84.137v-3.468h80.668v-80.672h3.469Zm0 0"/></g><g clip-path="url(#A)" transform="translate(94 125)"><path fill="#121010" d="M18.482 63.605q-4.721 0-9.437-2.579-1.566-.78-2.14-.78-1.066 0-1.141 1.5l-.063 1h-1.36V50.807h1.282q.64 5.501 4.11 8.109 3.467 2.611 8.218 2.61 4.747.002 7.203-2.563c1.645-1.719 2.469-3.742 2.469-6.078q0-5.578-6.422-8.438l-8.5-3.781q-3.862-1.718-5.797-4.672-1.922-2.965-1.922-6.406-.002-5.217 3.5-8.969 3.498-3.75 10.079-3.75 3.855 0 7.921 2.578c.907.524 1.524.782 1.86.782q.936 0 1-1.5l.078-1.422h1.36v12.359h-1.298q-.564-5.496-3.53-8.11-2.972-2.608-7.22-2.609-4.253.002-6.578 2.328-2.313 2.316-2.312 5.282-.001 2.97 1.61 5.328 1.606 2.343 4.75 3.703l8.577 3.797q4.279 1.923 6.453 5.031 2.187 3.112 2.188 6.688 0 5.064-4.078 8.78c-2.711 2.481-6.328 3.72-10.86 3.72m0 0"/></g><g clip-path="url(#B)" transform="translate(236 125)"><path fill="#121010" d="M18.396 63.047q-4.721 0-9.437-2.578-1.566-.781-2.14-.782-1.066 0-1.142 1.5l-.062 1h-1.36V50.25h1.282q.64 5.501 4.11 8.11 3.467 2.61 8.218 2.609 4.747.002 7.203-2.563c1.645-1.719 2.469-3.742 2.469-6.078q0-5.578-6.422-8.438l-8.5-3.78q-3.862-1.719-5.797-4.673-1.922-2.965-1.922-6.406c0-3.476 1.164-6.469 3.5-8.969q3.498-3.75 10.078-3.75 3.855 0 7.922 2.578 1.357.784 1.86.782.936 0 1-1.5l.078-1.422h1.36v12.36h-1.298q-.564-5.497-3.531-8.11-2.97-2.608-7.219-2.61-4.253.001-6.578 2.329-2.313 2.315-2.312 5.28-.001 2.973 1.609 5.329c1.07 1.562 2.656 2.797 4.75 3.703l8.578 3.797q4.279 1.923 6.453 5.031 2.187 3.112 2.188 6.688 0 5.064-4.078 8.781-4.065 3.72-10.86 3.719m0 0"/></g><g clip-path="url(#C)" transform="translate(163 125)"><path fill="#121010" d="m36.222 62.187-.078-1q-.064-1.5-1.14-1.5-.563.001-2.063.782-4.66 2.578-9.36 2.578c-6.011 0-10.933-2.07-14.765-6.219-3.836-4.145-5.75-9.848-5.75-17.11q0-10.904 5.672-17.156 5.685-6.248 14.843-6.25c3.094 0 6.188.79 9.282 2.36 1 .523 1.71.781 2.14.781q1.078 0 1.141-1.5l.078-1.203h1.36v12.36h-1.297c-.43-3.665-1.797-6.368-4.11-8.11q-3.456-2.608-8.594-2.61-6.516 0-10.484 5.72-3.954 5.704-3.953 15.64-.001 9.94 4 15.578 3.997 5.642 10.437 5.64 5.139.002 8.594-2.609c2.313-1.738 3.68-4.441 4.11-8.11h1.296v11.938Zm0 0"/></g><g fill="#121010" clip-path="url(#D)" transform="translate(58 208)"><path d="m5.12 7.877 3.063-6.125h.563v7.265h-.704V3.595L5.34 9.017h-.437L2.199 3.595v5.422H1.48V1.752h.578ZM17.714 5.392a3.59 3.59 0 0 1-1.062 2.563 4 4 0 0 1-1.156.781 3.5 3.5 0 0 1-1.407.281q-.75 0-1.406-.281a4.2 4.2 0 0 1-1.172-.781 3.6 3.6 0 0 1-1.062-2.563q0-.75.281-1.406c.188-.445.445-.836.781-1.172a3.9 3.9 0 0 1 1.172-.781 3.5 3.5 0 0 1 1.406-.281q.75 0 1.407.28.654.283 1.156.782.5.504.781 1.172.281.656.281 1.406M14.09 8.314c.395 0 .77-.07 1.125-.219q.527-.232.938-.64.403-.404.625-.938.234-.526.234-1.125 0-.608-.234-1.14a2.8 2.8 0 0 0-.625-.922 3.2 3.2 0 0 0-.938-.64 2.8 2.8 0 0 0-1.125-.235c-.406 0-.789.078-1.14.234a3.1 3.1 0 0 0-.922.64c-.274.262-.484.571-.64.923a2.9 2.9 0 0 0-.22 1.14c0 .399.07.774.22 1.125.156.356.366.668.64.938q.405.408.922.64a2.9 2.9 0 0 0 1.14.22M25.714 8.314v.703h-6.296V1.752h.718v6.562ZM33.75 5.392q0 .738-.281 1.406-.269.658-.766 1.157a4 4 0 0 1-1.156.781 3.6 3.6 0 0 1-1.422.281h-2.672V1.752h2.672a3.58 3.58 0 0 1 2.578 1.062q.497.504.766 1.172.28.656.281 1.406m-3.625 2.922c.406 0 .785-.07 1.14-.219q.528-.232.923-.64.403-.404.625-.938.234-.526.234-1.125 0-.608-.234-1.14a2.8 2.8 0 0 0-.625-.922 2.9 2.9 0 0 0-.922-.64 2.8 2.8 0 0 0-1.14-.235h-1.954v5.86ZM41.786 5.861c0 .437-.086.852-.25 1.234-.157.375-.383.711-.672 1a3 3 0 0 1-1 .688 3.1 3.1 0 0 1-1.219.234c-.437 0-.851-.078-1.234-.234a3.2 3.2 0 0 1-1-.688 3.4 3.4 0 0 1-.672-1 3.05 3.05 0 0 1-.25-1.234v-4.11h.719v4.11q0 .674.328 1.234.326.551.875.891.561.328 1.234.328c.445 0 .86-.11 1.234-.328a2.45 2.45 0 0 0 .875-.89q.33-.563.329-1.235v-4.11h.703ZM49.821 3.752q-.001.55-.265 1a1.8 1.8 0 0 1-.72.718q-.455.268-1 .266h-.39l2.797 3.281h-.922l-2.797-3.281h-2.28v3.281h-.72V1.752h4.313q.543 0 1 .28.467.27.719.72.264.438.265 1m-5.578-1.297v2.578h3.594q.358.002.64-.172.294-.187.47-.469a1.26 1.26 0 0 0 .171-.64q0-.36-.172-.641a1.35 1.35 0 0 0-.468-.469 1.13 1.13 0 0 0-.641-.187ZM55.074 1.752h.469l3.093 7.265h-.765l-.64-1.5h-3.86l-.625 1.5h-.782Zm-1.406 5.062h3.265l-1.625-3.797ZM62.353 2.455q-.364 0-.657.187-.282.176-.453.469a1.2 1.2 0 0 0-.172.64q-.002.348.172.641.172.282.453.469.293.174.657.172h2.312q.543 0 1 .281c.313.18.55.418.719.719q.265.438.265 1-.001.55-.265 1a1.98 1.98 0 0 1-1.719.984h-2.312q-.551.002-1-.265a2.3 2.3 0 0 1-.735-.72c-.18-.3-.265-.632-.265-1h.718q-.002.348.172.641.172.281.453.47.293.172.657.171h2.312q.358.002.64-.172.293-.187.47-.469a1.306 1.306 0 0 0 0-1.297 1.35 1.35 0 0 0-.47-.468 1.2 1.2 0 0 0-.64-.172h-2.312c-.368 0-.7-.086-1-.266a2.05 2.05 0 0 1-.735-.718c-.18-.301-.265-.633-.265-1q-.002-.562.265-1c.188-.301.43-.54.735-.72a1.85 1.85 0 0 1 1-.28h2.312q.543 0 1 .28c.313.18.55.419.719.72q.265.438.265 1h-.703q0-.36-.172-.641a1.35 1.35 0 0 0-.468-.469 1.13 1.13 0 0 0-.64-.187ZM72.757 9.767h-.719V1.002h.719ZM84.421 3.752q-.001.55-.265 1a1.8 1.8 0 0 1-.72.718q-.455.268-1 .266h-3.593v3.281h-.719V1.752h4.313q.543 0 1 .28.467.27.719.72.264.438.265 1m-1.984 1.28c.238 0 .453-.054.64-.171q.294-.187.47-.469a1.26 1.26 0 0 0 .171-.64q-.001-.36-.172-.641a1.35 1.35 0 0 0-.469-.469 1.13 1.13 0 0 0-.64-.187h-3.594v2.578ZM93.426 5.392a3.59 3.59 0 0 1-1.063 2.563 4 4 0 0 1-1.156.781 3.5 3.5 0 0 1-1.406.281q-.75 0-1.407-.281a4.2 4.2 0 0 1-1.172-.781 3.6 3.6 0 0 1-1.062-2.563q0-.75.281-1.406c.188-.445.445-.836.781-1.172a3.9 3.9 0 0 1 1.172-.781 3.5 3.5 0 0 1 1.407-.281q.75 0 1.406.28.654.283 1.156.782.5.504.781 1.172.282.656.282 1.406M89.8 8.314c.394 0 .77-.07 1.125-.219q.527-.232.937-.64.404-.404.625-.938.234-.526.234-1.125 0-.608-.234-1.14a2.8 2.8 0 0 0-.625-.922 3.2 3.2 0 0 0-.937-.64 2.8 2.8 0 0 0-1.125-.235c-.407 0-.79.078-1.141.234a3.1 3.1 0 0 0-.922.64q-.408.394-.64.923a2.9 2.9 0 0 0-.22 1.14q-.002.599.22 1.125.232.534.64.938.405.408.922.64a2.9 2.9 0 0 0 1.14.22M101.426 3.752q-.001.55-.266 1a1.8 1.8 0 0 1-.719.718q-.456.268-1 .266h-.39l2.796 3.281h-.921l-2.797-3.281h-2.282v3.281h-.718V1.752h4.312q.544 0 1 .28.468.27.719.72.265.438.266 1m-5.579-1.297v2.578h3.594q.358.002.64-.172.293-.187.47-.469a1.26 1.26 0 0 0 .171-.64q0-.36-.171-.641a1.35 1.35 0 0 0-.47-.469 1.13 1.13 0 0 0-.64-.187ZM106.381 9.017V2.455h-2.812v-.703h6.297v.703h-2.782v6.562ZM114.714 1.752h.468l3.094 7.265h-.765l-.641-1.5h-3.86l-.624 1.5h-.782Zm-1.407 5.062h3.266l-1.625-3.797ZM129.94 3.752q0 .55-.267 1a1.8 1.8 0 0 1-.718.718q-.457.268-1 .266h-.39l2.796 3.281h-.922l-2.797-3.281h-2.281v3.281h-.719V1.752h4.313q.544 0 1 .28.467.27.718.72.265.438.266 1m-5.579-1.297v2.578h3.594q.358.002.64-.172.293-.187.47-.469a1.26 1.26 0 0 0 .171-.64q-.001-.36-.172-.641a1.35 1.35 0 0 0-.469-.469 1.13 1.13 0 0 0-.64-.187ZM138.38 2.455H132.8v2.578h3.61v.703h-3.61v2.578h5.578v.703h-6.297V1.752h6.297ZM142.93 9.017V2.455h-2.812v-.703h6.297v.703h-2.782v6.562ZM154.45 3.752q-.001.55-.265 1a1.8 1.8 0 0 1-.719.718q-.457.268-1 .266h-.39l2.796 3.281h-.922l-2.797-3.281h-2.28v3.281h-.72V1.752h4.313q.543 0 1 .28.467.27.719.72.264.438.265 1m-5.578-1.297v2.578h3.594q.358.002.64-.172.294-.187.47-.469a1.26 1.26 0 0 0 .171-.64q0-.36-.172-.641a1.35 1.35 0 0 0-.468-.469 1.13 1.13 0 0 0-.641-.187ZM159.703 1.752h.469l3.093 7.265h-.765l-.64-1.5H158l-.625 1.5h-.782Zm-1.406 5.062h3.265l-1.625-3.797ZM167.794 9.017V2.455h-2.812v-.703h6.297v.703h-2.782v6.562ZM180.283 5.392a3.59 3.59 0 0 1-1.063 2.563 4 4 0 0 1-1.156.781 3.5 3.5 0 0 1-1.406.281q-.75 0-1.406-.281a4.2 4.2 0 0 1-1.172-.781 3.6 3.6 0 0 1-1.063-2.563q0-.75.282-1.406.279-.668.78-1.172a3.9 3.9 0 0 1 1.173-.781 3.5 3.5 0 0 1 1.406-.281q.75 0 1.406.28c.438.188.82.45 1.156.782q.499.504.782 1.172.28.656.28 1.406m-3.625 2.922c.394 0 .77-.07 1.125-.219q.527-.232.937-.64.404-.404.625-.938.235-.526.235-1.125 0-.608-.235-1.14a2.8 2.8 0 0 0-.625-.922 3.2 3.2 0 0 0-.937-.64 2.8 2.8 0 0 0-1.125-.235c-.406 0-.79.078-1.14.234a3.1 3.1 0 0 0-.923.64q-.408.394-.64.923a2.9 2.9 0 0 0-.219 1.14c0 .399.07.774.219 1.125q.232.534.64.938.406.408.922.64a2.9 2.9 0 0 0 1.14.22M186.355 9.767h-.72V1.002h.72ZM195.363 1.752q.75 0 1.406.28.654.283 1.156.782.5.504.781 1.172.282.656.282 1.406 0 .644-.219 1.235-.222.595-.61 1.062l1.329 1.328h-1l-.828-.828a3.5 3.5 0 0 1-1.063.61 3.4 3.4 0 0 1-1.234.218q-.75 0-1.407-.281a4.2 4.2 0 0 1-1.171-.781 3.6 3.6 0 0 1-1.063-2.563q0-.75.281-1.406.28-.668.782-1.172a3.9 3.9 0 0 1 1.171-.781 3.5 3.5 0 0 1 1.407-.281m0 3.14 2.297 2.281q.293-.356.453-.812c.113-.313.172-.633.172-.969q0-.608-.235-1.14a2.8 2.8 0 0 0-.625-.922 3.2 3.2 0 0 0-.937-.64 2.8 2.8 0 0 0-1.125-.235c-.407 0-.79.078-1.14.234a3.1 3.1 0 0 0-.923.64q-.408.394-.64.923a2.9 2.9 0 0 0-.22 1.14q-.002.599.22 1.125.232.534.64.938.405.408.922.64a2.9 2.9 0 0 0 1.14.22q.499 0 .954-.157.469-.17.844-.469l-2.297-2.297ZM207.496 5.861c0 .437-.086.852-.25 1.234-.156.375-.383.711-.672 1a3 3 0 0 1-1 .688 3.1 3.1 0 0 1-1.219.234q-.657 0-1.234-.234a3.2 3.2 0 0 1-1-.688 3.4 3.4 0 0 1-.672-1 3.05 3.05 0 0 1-.25-1.234v-4.11h.719v4.11q0 .674.328 1.234.326.551.875.891.561.328 1.234.328.67 0 1.235-.328a2.45 2.45 0 0 0 .875-.89q.328-.563.328-1.235v-4.11h.703ZM212.344 1.752h.469l3.093 7.265h-.765l-.64-1.5h-3.86l-.625 1.5h-.781Zm-1.406 5.062h3.265l-1.625-3.797ZM223.92 5.392q0 .738-.282 1.406-.268.658-.765 1.157a4 4 0 0 1-1.156.781 3.6 3.6 0 0 1-1.422.281h-2.672V1.752h2.672a3.58 3.58 0 0 1 2.578 1.062q.497.504.765 1.172.282.656.282 1.406m-3.625 2.922c.406 0 .785-.07 1.14-.219q.529-.232.922-.64.404-.404.625-.938.235-.526.235-1.125 0-.608-.235-1.14a2.8 2.8 0 0 0-.625-.922 2.9 2.9 0 0 0-.922-.64 2.8 2.8 0 0 0-1.14-.235h-1.953v5.86ZM231.955 3.752q-.001.55-.265 1a1.8 1.8 0 0 1-.72.718q-.455.268-1 .266h-.39l2.797 3.281h-.922l-2.797-3.281h-2.28v3.281h-.72V1.752h4.313q.543 0 1 .28.467.27.719.72.264.438.265 1m-5.578-1.297v2.578h3.594q.358.002.64-.172.293-.187.47-.469a1.26 1.26 0 0 0 .171-.64q0-.36-.172-.641a1.35 1.35 0 0 0-.468-.469 1.13 1.13 0 0 0-.641-.187ZM241.364 5.392a3.59 3.59 0 0 1-1.062 2.563 4 4 0 0 1-1.157.781 3.5 3.5 0 0 1-1.406.281q-.75 0-1.406-.281a4.2 4.2 0 0 1-1.172-.781 3.6 3.6 0 0 1-1.063-2.563q0-.75.282-1.406.279-.668.78-1.172a3.9 3.9 0 0 1 1.173-.781 3.5 3.5 0 0 1 1.406-.281q.75 0 1.406.28c.438.188.82.45 1.157.782q.499.504.78 1.172.282.656.282 1.406m-3.625 2.922c.395 0 .77-.07 1.125-.219q.527-.232.938-.64.402-.404.625-.938.234-.526.234-1.125 0-.608-.234-1.14a2.8 2.8 0 0 0-.625-.922 3.2 3.2 0 0 0-.938-.64 2.8 2.8 0 0 0-1.125-.235c-.406 0-.79.078-1.14.234a3.1 3.1 0 0 0-.922.64q-.409.394-.641.923a2.9 2.9 0 0 0-.219 1.14c0 .399.07.774.219 1.125q.232.534.64.938.406.408.922.64a2.9 2.9 0 0 0 1.141.22M245.067 2.455q-.363 0-.656.187-.283.176-.453.469a1.2 1.2 0 0 0-.172.64q-.002.348.172.641.17.282.453.469.293.174.656.172h2.313q.543 0 1 .281.467.269.718.719.265.438.266 1-.001.55-.266 1a1.98 1.98 0 0 1-1.718.984h-2.313q-.55.002-1-.265a2.3 2.3 0 0 1-.734-.72q-.268-.449-.266-1h.719q-.002.348.172.641.17.281.453.47.293.172.656.171h2.313q.358.002.64-.172.293-.187.47-.469a1.306 1.306 0 0 0 0-1.297 1.35 1.35 0 0 0-.47-.468 1.2 1.2 0 0 0-.64-.172h-2.313c-.367 0-.699-.086-1-.266a2.05 2.05 0 0 1-.734-.718q-.268-.45-.266-1-.002-.562.266-1 .28-.45.734-.72a1.85 1.85 0 0 1 1-.28h2.313q.543 0 1 .28.467.27.718.72.265.438.266 1h-.703q-.001-.36-.172-.641a1.35 1.35 0 0 0-.469-.469 1.13 1.13 0 0 0-.64-.187Zm0 0"/></g></svg>